/* XPM */
static char *widelands[] = {
/* columns rows colors chars-per-pixel */
"32 32 146 2 ",
"   c #010101",
".  c #060B06",
"X  c #09100A",
"o  c #081909",
"O  c #1A100D",
"+  c #230F0B",
"@  c #2D150F",
"#  c #2D1711",
"$  c #321710",
"%  c #092609",
"&  c #083A0A",
"*  c #142315",
"=  c #162E17",
"-  c #192B19",
";  c #143415",
":  c #103911",
">  c #1D341E",
",  c #591107",
"<  c #59160C",
"1  c #4C1C14",
"2  c #501F18",
"3  c #69170A",
"4  c #651A0D",
"5  c #6E1C0E",
"6  c #731D0A",
"7  c #4D221B",
"8  c #432B1F",
"9  c #6C2314",
"0  c #62271A",
"q  c #752516",
"w  c #722D1F",
"e  c #7C2D1B",
"r  c #402A23",
"t  c #50342D",
"y  c #632E24",
"u  c #6D2D20",
"i  c #6E3224",
"p  c #6C372E",
"a  c #753324",
"s  c #793325",
"d  c #723628",
"f  c #7F3E2E",
"g  c #044605",
"h  c #054B06",
"j  c #0B440C",
"k  c #0A4E0B",
"l  c #075009",
"z  c #0C530E",
"x  c #0E4910",
"c  c #134314",
"v  c #114D13",
"b  c #1B431D",
"n  c #1B481C",
"m  c #0E5410",
"M  c #155517",
"N  c #155C17",
"B  c #165218",
"V  c #1C531D",
"C  c #165B18",
"Z  c #1B5C1D",
"A  c #1F5420",
"S  c #1F5C21",
"D  c #224524",
"F  c #224D24",
"G  c #2C4B21",
"H  c #254E28",
"J  c #245226",
"K  c #225C25",
"L  c #2A562C",
"P  c #295B2A",
"I  c #325533",
"U  c #3A5F3C",
"Y  c #236325",
"T  c #266328",
"R  c #2A622D",
"E  c #276829",
"W  c #2C6A2F",
"Q  c #336335",
"!  c #326C34",
"~  c #366E39",
"^  c #386F3A",
"/  c #327234",
"(  c #357238",
")  c #3B743E",
"_  c #367A39",
"`  c #3B7D3E",
"'  c #455123",
"]  c #4F522C",
"[  c #4C5829",
"{  c #5F4334",
"}  c #7C4A34",
"|  c #7A4B3E",
" . c #3E6540",
".. c #3E7340",
"X. c #3E7B41",
"o. c #7E4F44",
"O. c #426C44",
"+. c #427344",
"@. c #437B45",
"#. c #49764B",
"$. c #477F4A",
"%. c #497E4C",
"&. c #822E1C",
"*. c #82321E",
"=. c #863322",
"-. c #8B3420",
";. c #873B27",
":. c #893826",
">. c #833C2A",
",. c #8A3E2D",
"<. c #8C422E",
"1. c #90422F",
"2. c #8B4533",
"3. c #894E3C",
"4. c #924E3C",
"5. c #93513F",
"6. c #9C513D",
"7. c #805245",
"8. c #8E5444",
"9. c #89574A",
"0. c #945342",
"q. c #9F5643",
"w. c #935C4D",
"e. c #9F5E4D",
"r. c #A35D4B",
"t. c #9B6354",
"y. c #946459",
"u. c #9D6A5B",
"i. c #A26352",
"p. c #A66857",
"a. c #A46B5B",
"s. c #A96B5B",
"d. c #9F6F61",
"f. c #AB7162",
"g. c #468249",
"h. c #4B824E",
"j. c #4E8451",
"k. c #4E8B51",
"l. c #538555",
"z. c #528955",
"x. c #558458",
"c. c #568C59",
"v. c #569159",
"b. c #59925C",
"n. c #608E63",
"m. c None",
/* pixels */
"m.m.m.m.m.m.m.m.m.m.m.m.m.m.m.m.m.m.m.m.m.m.m.m.m.m.m.m.m.m.m.m.",
"m.m.m.m.m.m.m.n.x.m.m.m.m.m.m.m.m.m.m.m.m.m.m.m.m.x.m.m.m.m.m.m.",
"m.m.m.m.m.m.m.c.z.j.m.m.m.m.m.m.m.m.m.m.m.m.m.x.b.z.l.m.m.m.m.m.",
"m.m.m.m.m.m.#.v.+.z.h.m.m.m.m.m.m.m.m.m.m.m.j.v.%.h.h.m.m.m.m.m.",
"m.m.m.m.m.m.j.h.j.m.%.h.%.m.m.m.m.m.m.m.m.m.m.m.U $.%.%.m.m.m.m.",
"m.m.m.m.m.m.k.) O.U z.$.$.m.m.m.m.m.m.m.m.m.m.m.m.I g.+.@.m.m.m.",
"m.m.) +.%.h.$.X.$.k.) @.O.m.m.m.m.m.m.m.m.m.m.m.m.- $.X...m.m.m.",
"m.m.h.$.@.) X.~ ) ) ..> m.m.m.m.m.m.m.m.m.m.m.m.m.. ^ X.^ m.m.m.",
"m.m.m.m.m.Q X.^ X       m.y.t.a.f.f.a.a.u.m.m.m.m.m.> _ ~ m.m.m.",
"m.m.m.m.m.L X.( .     m.m.m.m.p.u.a.w.d.m.m.m.m.m.m.* ( ! m.m.m.",
"m.m.m.m.m.F ` W = m.m.m.m.m.m.7.s.t.t.m.m.m.m.m.m.m.m.! ! m.m.m.",
"m.m.m.m.m.b _ T D m.m.m.m.m.m.t p.w.9.m.m.m.m.m.m.m.H ( ! m.m.m.",
"m.m.m.m.m.b / Y P m.m.m.m.m.m.r i.8.o.m.m.m.m.m.m.m.! W = m.m.m.",
"m.m.m.m.m.m.Y Z R m.m.m.m.m.m.m.r.3.| m.m.m.m.m.m.m.E Y m.m.m.m.",
"m.m.m.m.m.m.V Z S m.m.m.m.m.m.m.e.0.8.m.m.m.m.m.m.m.Y Y m.m.m.m.",
"m.m.m.m.m.m.X Z C V m.m.m.m.m.{ r.0.0.G m.m.m.m.m.K K J m.m.m.m.",
"m.m.m.m.m.m.m.: C C m.m.m.m.m.] r.4.3.B C m.m.m.m.V T m.m.m.m.m.",
"m.m.m.m.m.m.m.m.v m m.m.m.m.F ' q.2.} C z B m.m.A Y m.m.m.m.m.m.",
"m.m.m.m.m.m.m.m.m.k k m.m.m.c [ 6.f } k l z m.F Z b m.m.m.m.m.m.",
"m.m.m.m.m.m.m.m.m.m.k h m.n Z 8 <.,.>.% h h B B K m.m.m.m.m.m.m.",
"m.m.m.m.m.m.m.m.m.m.m.x j B : O <.;.d   & g j V m.m.m.m.m.m.m.m.",
"m.m.m.m.m.m.m.m.m.m.m.m.m.c m.# <.e i   o x c m.m.m.m.m.m.m.m.m.",
"m.m.m.m.m.m.m.m.m.m.m.m.m.m.m.# :.e u         m.m.m.m.>.m.m.m.m.",
"m.m.m.m.m.m.m.m.m.m.m.m.m.m.m.$ =.4 d m.m.m.m.m.m.m.p ,.m.m.m.m.",
"m.m.m.m.m.m.m.m.m.m.m.m.m.m.m.m.*.6 9 m.m.m.m.m.m.m.s >.m.m.m.m.",
"m.m.m.m.m.m.m.m.m.m.m.m.m.m.m.m.q 6 5 m.7 7 1 2 y 1.4 a m.m.m.m.",
"m.m.m.m.m.m.m.m.m.m.m.m.m.m.u w &.9 q q *.-.-.-.=.3 , 0 m.m.m.m.",
"m.m.m.m.m.m.m.m.m.m.m.m.m.m.m.m.    m.m.m.m.m.m.m.< &.m.m.m.m.m.",
"m.m.m.m.m.m.m.m.m.m.m.m.m.m.m.m.m.    m.m.m.m.m.m.+ 1 m.m.m.m.m.",
"m.m.m.m.m.m.m.m.m.m.m.m.m.m.m.m.m.m.m.m.m.m.m.m.m.m.m.m.m.m.m.m.",
"m.m.m.m.m.m.m.m.m.m.m.m.m.m.m.m.m.m.m.m.m.m.m.m.m.m.m.m.m.m.m.m.",
"m.m.m.m.m.m.m.m.m.m.m.m.m.m.m.m.m.m.m.m.m.m.m.m.m.m.m.m.m.m.m.m."
};
